<svg width="88" height="93" viewBox="0 0 88 93" fill="none" xmlns="http://www.w3.org/2000/svg">
<g clip-path="url(#clip0_109_191)">
<path d="M86.7235 33.8949L79.1055 26.8297V7.8471C79.1055 6.15961 77.7456 4.79356 76.0657 4.79356H65.8509C64.0233 4.79356 62.5403 6.28324 62.5403 8.11907V11.4508L54.7378 4.2187C48.6766 -1.40623 39.3295 -1.40623 33.2683 4.2187L1.28257 33.8949C0.0764947 35.0137 -0.32349 36.763 0.273396 38.3021C0.870283 39.8413 2.34712 40.855 3.9901 40.855H8.13137C8.02061 41.9985 7.95907 43.1544 7.95907 44.3227V56.8026C7.95907 76.7124 24.1735 93 43.9938 93C63.8141 93 80.0285 76.7124 80.0285 56.8026V44.3227C80.0285 43.1544 79.967 41.9985 79.8562 40.855H83.9975C85.6405 40.855 87.1173 39.8413 87.7142 38.3021C88.3295 36.763 87.9295 35.0137 86.7235 33.8949ZM46.006 35.0322C48.012 31.1999 52.3748 29.5371 55.7469 31.3173C59.119 33.0975 60.2328 37.6469 58.2268 41.4855C56.2207 45.3178 51.8641 46.9806 48.4858 45.2004C45.1076 43.414 43.9999 38.8646 46.006 35.0322ZM32.2653 31.3111C35.6374 29.5309 40.0002 31.1937 42.0062 35.0261C44.0123 38.8584 42.8985 43.4078 39.5264 45.1942C36.1543 46.9744 31.7915 45.3117 29.7854 41.4793C27.7794 37.6469 28.887 33.0975 32.2653 31.3111ZM19.5953 50.3988C17.8846 47.1228 18.8323 43.2409 21.7121 41.7203C24.5919 40.1998 28.3148 41.6215 30.0316 44.8913C31.7422 48.1674 30.7946 52.0492 27.9148 53.5698C25.0288 55.0966 21.3059 53.6749 19.5953 50.3988ZM44.0061 79.7968C39.3787 79.6856 26.7456 79.6423 26.7456 68.4481C26.7456 55.5602 36.9727 48.3157 44.0061 48.3096C51.0334 48.3219 61.2666 55.5602 61.2666 68.4481C61.2604 79.6423 48.6274 79.6856 44.0061 79.7968ZM68.4108 50.3988C66.7001 53.6749 62.9772 55.0904 60.0913 53.5698C57.2053 52.0492 56.2638 48.1612 57.9745 44.8913C59.6851 41.6153 63.408 40.1998 66.294 41.7203C69.1738 43.2409 70.1214 47.1289 68.4108 50.3988Z" fill="white"/>
</g>
<defs>
<clipPath id="clip0_109_191">
<rect width="88" height="93" fill="white"/>
</clipPath>
</defs>
</svg>
